<svg width="132" height="47" viewBox="0 0 132 47" fill="none" xmlns="http://www.w3.org/2000/svg">
<path d="M10.7753 12.2121C8.59498 7.46867 4.96114 8.19827 1.69068 16.2256C0.139335 20.0334 -0.195116 23.7579 0.094308 27.1724C-0.276828 22.7939 5.10648 21.0424 11.502 28.632C12.3694 29.6613 13.224 30.725 14.0764 31.7877C17.5887 29.4078 21.5946 25.7633 23.9199 23.4584C18.4505 21.9318 14.216 19.6977 10.7753 12.2121Z" fill="#EEE5FF"/>
<path d="M40.5728 38.119C46.0962 30.8212 45.2968 20.6956 44.2066 18.415C45.6602 26.0778 36.2122 26.4427 28.5811 24.6182C28.3234 24.5566 28.068 24.4959 27.815 24.4357L27.8146 24.4356C26.4501 24.1111 25.1536 23.8028 23.9199 23.4584C21.5946 25.7633 17.5887 29.4078 14.0764 31.7877L14.1622 31.8946C21.1364 40.5894 27.99 49.134 40.5728 38.119Z" fill="#CCB2FF"/>
<path d="M44.2066 18.415C40.7182 11.1172 29.429 18.5367 24.2205 23.1586C24.1238 23.2557 24.0235 23.3557 23.9199 23.4584C25.1536 23.8028 26.4501 24.1111 27.8146 24.4356L27.815 24.4357C28.068 24.4959 28.3234 24.5566 28.5811 24.6182C36.2122 26.4427 45.6602 26.0778 44.2066 18.415Z" fill="#B691FF"/>
<path d="M9.32175 34.1054C10.5737 33.9119 12.259 33.0191 14.0764 31.7877C13.224 30.725 12.3694 29.6613 11.502 28.632C5.10648 21.0424 -0.276828 22.7939 0.094308 27.1724C0.496393 31.9161 4.59775 34.8351 9.32175 34.1054Z" fill="#CCB2FF"/>
<path d="M9.32175 42.8626C18.4064 50.1604 33.6685 47.2413 40.5728 38.119C27.99 49.134 21.1364 40.5894 14.1622 31.8946L14.0764 31.7877C12.259 33.0191 10.5737 33.9119 9.32175 34.1054C4.59775 34.8351 0.496393 31.9161 0.094308 27.1724C0.59232 33.0478 3.57621 38.2471 9.32175 42.8626Z" fill="#B691FF"/>
<path d="M32.145 9.20807C31.1784 12.3602 26.1263 15.9299 22.9742 14.9633C23.4715 11.9211 19.7635 8.85958 20.7302 5.70744C21.6968 2.55531 25.0358 0.783641 28.1879 1.75031C31.34 2.71698 33.1117 6.05593 32.145 9.20807Z" fill="#CCB2FF"/>
<path d="M118.677 35.93C117.774 35.93 117.049 35.6255 116.503 35.0165C115.958 34.4076 115.685 33.5782 115.685 32.5283C115.685 31.9613 115.758 31.2264 115.905 30.3235C116.052 29.3996 116.231 28.3917 116.44 27.2998C116.671 26.1869 116.892 25.0635 117.102 23.9296C117.312 22.7747 117.49 21.6618 117.637 20.5909C117.784 19.52 117.858 18.5751 117.858 17.7562C117.858 16.7273 117.721 15.9819 117.448 15.5199V15.3309C117.91 14.806 118.414 14.4175 118.96 14.1656C119.506 13.9136 120.042 13.7876 120.567 13.7876C121.365 13.7876 122.047 14.0711 122.614 14.638C123.181 15.205 123.464 16.0554 123.464 17.1893C123.464 17.7982 123.38 18.5436 123.212 19.4256C123.044 20.3075 122.845 21.2314 122.614 22.1973C122.383 23.1632 122.152 24.0661 121.921 24.906C122.32 24.1291 122.845 23.3627 123.496 22.6067C124.168 21.8298 124.924 21.1894 125.764 20.6854C126.625 20.1815 127.517 19.9295 128.441 19.9295C129.491 19.9295 130.194 20.255 130.551 20.9059C130.929 21.5568 131.118 22.3653 131.118 23.3312C131.118 24.2131 131.024 25.158 130.835 26.1659C130.646 27.1528 130.457 28.1082 130.268 29.0321C130.079 29.935 129.984 30.691 129.984 31.2999C129.984 32.1818 130.247 32.6228 130.772 32.6228C131.003 32.6228 131.202 32.5598 131.37 32.4338C131.559 32.2868 131.696 32.1293 131.78 31.9613L132 32.1188C132 32.9377 131.801 33.6307 131.402 34.1976C131.003 34.7646 130.488 35.195 129.858 35.489C129.249 35.783 128.619 35.93 127.968 35.93C127.107 35.93 126.331 35.6465 125.638 35.0795C124.945 34.4916 124.598 33.5467 124.598 32.2448C124.598 31.5099 124.693 30.712 124.882 29.851C125.092 28.9901 125.291 28.1607 125.48 27.3628C125.669 26.5439 125.764 25.8614 125.764 25.3155C125.764 24.6016 125.512 24.2446 125.008 24.2446C124.546 24.2446 124.042 24.4756 123.496 24.9375C122.95 25.3995 122.467 25.9769 122.047 26.6698C121.648 27.3628 121.386 28.0452 121.26 28.7172C121.218 28.8851 121.197 29.0846 121.197 29.3156C121.197 29.8405 121.27 30.3445 121.417 30.8274C121.585 31.3104 121.669 31.8773 121.669 32.5283C121.669 33.4942 121.417 34.3026 120.913 34.9535C120.409 35.6045 119.664 35.93 118.677 35.93Z" fill="#ADA9B5"/>
<path d="M105.287 36.0869C103.985 36.0869 102.903 35.9084 102.042 35.5515C101.182 35.1945 100.541 34.743 100.121 34.1971C99.7012 33.6301 99.4912 33.0632 99.4912 32.4963C99.4912 31.6983 99.8482 30.9949 100.562 30.386C101.276 29.756 102.242 29.441 103.46 29.441C103.46 30.5119 103.596 31.3729 103.869 32.0238C104.142 32.6537 104.489 33.1052 104.909 33.3782C105.35 33.6511 105.77 33.7876 106.169 33.7876C106.652 33.7876 107.05 33.6511 107.365 33.3782C107.701 33.0842 107.869 32.7272 107.869 32.3073C107.869 31.7193 107.565 31.2049 106.956 30.7639C106.347 30.323 105.56 29.8295 104.594 29.2836C104.111 28.9896 103.586 28.6536 103.019 28.2757C102.452 27.8767 101.969 27.4042 101.57 26.8583C101.171 26.2914 100.972 25.6194 100.972 24.8425C100.972 24.0236 101.203 23.2991 101.665 22.6692C102.147 22.0393 102.777 21.5143 103.554 21.0944C104.331 20.6534 105.171 20.3279 106.074 20.1179C106.977 19.887 107.859 19.7715 108.72 19.7715C110.337 19.7715 111.555 20.097 112.373 20.7479C113.192 21.3988 113.602 22.0918 113.602 22.8267C113.602 23.4566 113.287 24.0236 112.657 24.5275C112.027 25.0315 111.061 25.2834 109.759 25.2834C109.78 24.2126 109.56 23.4356 109.098 22.9527C108.636 22.4487 108.142 22.1967 107.617 22.1967C107.239 22.1967 106.924 22.3122 106.673 22.5432C106.421 22.7742 106.295 23.1102 106.295 23.5511C106.295 24.0551 106.452 24.496 106.767 24.874C107.103 25.231 107.512 25.5564 107.995 25.8504C108.499 26.1234 109.014 26.3858 109.539 26.6378C110.253 26.9738 110.925 27.3308 111.555 27.7087C112.184 28.0867 112.699 28.5171 113.098 29.0001C113.497 29.483 113.696 30.071 113.696 30.7639C113.696 31.7088 113.308 32.5907 112.531 33.4097C111.775 34.2076 110.757 34.8585 109.476 35.3625C108.195 35.8454 106.799 36.0869 105.287 36.0869Z" fill="#ADA9B5"/>
<path d="M95.9495 18.9532C95.1095 18.9532 94.4166 18.7012 93.8707 18.1972C93.3457 17.6723 93.0832 17.0213 93.0832 16.2444C93.0832 15.4045 93.3982 14.6801 94.0281 14.0711C94.6581 13.4622 95.4245 13.1577 96.3274 13.1577C97.1673 13.1577 97.8498 13.4202 98.3747 13.9451C98.9207 14.4701 99.1936 15.121 99.1936 15.8979C99.1936 16.7379 98.8787 17.4623 98.2487 18.0712C97.6188 18.6592 96.8524 18.9532 95.9495 18.9532ZM93.7447 35.93C92.9258 35.93 92.1908 35.6465 91.5399 35.0796C90.889 34.4916 90.5635 33.5572 90.5635 32.2764C90.5635 31.5414 90.658 30.859 90.847 30.2291C91.0569 29.5781 91.2879 28.9482 91.5399 28.3392C91.8129 27.7303 92.0438 27.1424 92.2328 26.5754C92.4428 25.9875 92.5478 25.41 92.5478 24.8431C92.5478 24.3391 92.4638 23.9822 92.2958 23.7722C92.1278 23.5412 91.9284 23.4257 91.6974 23.4257C91.3404 23.4257 90.9939 23.6567 90.658 24.1187L90.4375 23.9927C90.5215 23.1527 90.784 22.4388 91.2249 21.8509C91.6869 21.2419 92.2433 20.7695 92.8943 20.4335C93.5662 20.0975 94.2276 19.9296 94.8786 19.9296C95.6765 19.9296 96.3694 20.192 96.9574 20.717C97.5453 21.2209 97.8393 22.0504 97.8393 23.2052C97.8393 23.8982 97.7343 24.6331 97.5243 25.41C97.3353 26.166 97.1044 26.9219 96.8314 27.6778C96.5794 28.4337 96.3484 29.1372 96.1384 29.7881C95.9495 30.439 95.855 30.9955 95.855 31.4574C95.855 31.8564 95.9285 32.1399 96.0755 32.3079C96.2434 32.4758 96.4219 32.5598 96.6109 32.5598C96.7999 32.5598 96.9784 32.5073 97.1463 32.4023C97.3353 32.2764 97.4718 32.1399 97.5558 31.9929L97.7763 32.0559C97.7763 32.8328 97.5663 33.5152 97.1463 34.1032C96.7474 34.6701 96.2434 35.1216 95.6345 35.4576C95.0256 35.7725 94.3956 35.93 93.7447 35.93Z" fill="#ADA9B5"/>
<path d="M66.008 35.9613C64.8531 35.9613 63.8872 35.4783 63.1103 34.5124C62.3334 33.5465 61.9449 32.2236 61.9449 30.5438C61.9449 29.6829 62.0394 28.717 62.2284 27.6461C62.4174 26.5542 62.6378 25.4518 62.8898 24.3389C63.1418 23.226 63.3623 22.1866 63.5513 21.2207C63.7402 20.2338 63.8347 19.4149 63.8347 18.7639C63.8347 18.302 63.7717 17.945 63.6457 17.693C63.5198 17.4201 63.2888 17.2836 62.9528 17.2836C62.7008 17.2836 62.4069 17.3991 62.0709 17.6301C61.7349 17.861 61.483 18.3125 61.315 18.9844L61 18.8584C61 17.0526 61.4095 15.6247 62.2284 14.5748C63.0683 13.5249 64.1917 13 65.5986 13C66.9214 13 67.8348 13.4305 68.3388 14.2914C68.8637 15.1523 69.1262 16.2337 69.1262 17.5356C69.1262 18.5015 69.0212 19.5304 68.8112 20.6223C68.6223 21.7142 68.4018 22.806 68.1498 23.8979C67.8978 24.9688 67.6669 25.9662 67.4569 26.8902C67.2679 27.8141 67.1734 28.5805 67.1734 29.1894C67.1734 30.0923 67.4044 30.5438 67.8663 30.5438C68.1393 30.5438 68.5068 30.3548 68.9687 29.9769C69.4307 29.5779 69.9136 29.0424 70.4176 28.3705C70.9425 27.6776 71.4465 26.9007 71.9294 26.0397C72.4124 25.1578 72.8219 24.2339 73.1578 23.268C73.1158 22.806 73.0843 22.3651 73.0633 21.9451C73.0423 21.5042 73.0318 21.1157 73.0318 20.7797C73.0318 19.0999 73.1893 17.7455 73.5043 16.7166C73.8403 15.6877 74.2602 14.9318 74.7642 14.4489C75.2681 13.9659 75.7826 13.7244 76.3075 13.7244C77.0424 13.7244 77.7039 14.1339 78.2918 14.9528C78.8798 15.7507 79.1737 16.8426 79.1737 18.2285C79.1737 19.0894 79.0163 20.0553 78.7013 21.1262C78.3863 22.1761 77.8614 23.2995 77.1264 24.4964C77.0634 26.3022 77.2629 27.7616 77.7249 28.8745C78.1868 29.9874 78.7643 30.5438 79.4572 30.5438C79.8982 30.5438 80.3706 30.3233 80.8746 29.8824C81.3995 29.4204 81.8825 28.7905 82.3234 27.9925C82.7644 27.1736 83.1214 26.2287 83.3943 25.1578C83.6883 24.0869 83.8353 22.9425 83.8353 21.7247C83.8353 21.0107 83.7828 20.2653 83.6778 19.4884C83.5938 18.7114 83.4783 17.966 83.3313 17.2521C83.2053 16.5382 83.0689 15.9502 82.9219 15.4883C82.9219 15.1313 83.0689 14.7743 83.3628 14.4174C83.6778 14.0394 84.0768 13.7244 84.5597 13.4725C85.0427 13.1995 85.5361 13.063 86.0401 13.063C86.544 13.063 87.027 13.2415 87.4889 13.5984C87.9509 13.9554 88.3288 14.5853 88.6228 15.4883C88.9168 16.3702 89.0638 17.6301 89.0638 19.2679C89.0638 21.5567 88.7698 23.709 88.1819 25.7248C87.5939 27.7196 86.796 29.4834 85.7881 31.0163C84.8012 32.5491 83.7093 33.7565 82.5124 34.6384C81.3155 35.4993 80.0976 35.9298 78.8588 35.9298C77.7669 35.9298 76.864 35.5938 76.15 34.9219C75.4361 34.2499 74.8797 33.347 74.4807 32.2131C74.0817 31.0792 73.7983 29.8194 73.6303 28.4335C72.8743 30.2393 72.0554 31.6987 71.1735 32.8116C70.2916 33.9035 69.4097 34.7014 68.5278 35.2053C67.6459 35.7093 66.8059 35.9613 66.008 35.9613Z" fill="#ADA9B5"/>
</svg>
