<svg width="110" height="110" viewBox="0 0 110 110" fill="none" xmlns="http://www.w3.org/2000/svg">
<circle cx="55" cy="55" r="55" transform="matrix(-1 0 0 1 110 0)" fill="#FFEFEB"/>
<path d="M65.2493 50.3337H63.4577V46.7503C63.4577 41.8053 59.4443 37.792 54.4993 37.792C49.5543 37.792 45.541 41.8053 45.541 46.7503V50.3337H43.7493C41.7785 50.3337 40.166 51.9462 40.166 53.917V71.8337C40.166 73.8045 41.7785 75.417 43.7493 75.417H65.2493C67.2202 75.417 68.8327 73.8045 68.8327 71.8337V53.917C68.8327 51.9462 67.2202 50.3337 65.2493 50.3337ZM54.4993 66.4587C52.5285 66.4587 50.916 64.8462 50.916 62.8753C50.916 60.9045 52.5285 59.292 54.4993 59.292C56.4702 59.292 58.0827 60.9045 58.0827 62.8753C58.0827 64.8462 56.4702 66.4587 54.4993 66.4587ZM60.0535 50.3337H48.9452V46.7503C48.9452 43.6866 51.4356 41.1962 54.4993 41.1962C57.5631 41.1962 60.0535 43.6866 60.0535 46.7503V50.3337Z" fill="#434343"/>
</svg>
