<svg width="16" height="16" viewBox="0 0 16 16" fill="none" xmlns="http://www.w3.org/2000/svg">
<rect width="16" height="16" fill="white"/>
<path d="M5.3276 5.43587C4.83134 4.35619 4.00422 4.52226 3.25982 6.3494C2.90671 7.2161 2.83059 8.06385 2.89647 8.84104C2.81199 7.84442 4.03731 7.44575 5.49303 9.17326C5.69046 9.40755 5.88496 9.64966 6.07898 9.89153C6.87844 9.34984 7.79023 8.5203 8.31951 7.99568C7.07459 7.64821 6.11075 7.13969 5.3276 5.43587Z" fill="#EEE5FF"/>
<path d="M12.1099 11.3326C13.3671 9.67156 13.1852 7.36682 12.937 6.84774C13.2679 8.59188 11.1174 8.67493 9.38046 8.25966C9.3218 8.24564 9.26367 8.23182 9.20608 8.21812L9.20598 8.2181C8.89542 8.14424 8.60031 8.07406 8.31951 7.99568C7.79023 8.5203 6.87844 9.34984 6.07898 9.89153L6.0985 9.91587C7.68593 11.8949 9.24592 13.8398 12.1099 11.3326Z" fill="#CCB2FF"/>
<path d="M12.937 6.84774C12.143 5.18666 9.57345 6.87542 8.38792 7.92744C8.36591 7.94955 8.34309 7.97231 8.31951 7.99568C8.60031 8.07406 8.89542 8.14424 9.20598 8.2181L9.20608 8.21812C9.26367 8.23182 9.3218 8.24564 9.38046 8.25966C11.1174 8.67493 13.2679 8.59188 12.937 6.84774Z" fill="#B691FF"/>
<path d="M4.99676 10.4191C5.28172 10.375 5.66531 10.1718 6.07898 9.89153C5.88496 9.64966 5.69046 9.40755 5.49303 9.17326C4.03731 7.44575 2.81199 7.84442 2.89647 8.84104C2.98799 9.92077 3.92151 10.5852 4.99676 10.4191Z" fill="#CCB2FF"/>
<path d="M4.99676 12.4123C7.06454 14.0734 10.5384 13.409 12.1099 11.3326C9.24592 13.8398 7.68593 11.8949 6.0985 9.91587L6.07898 9.89153C5.66531 10.1718 5.28172 10.375 4.99676 10.4191C3.92151 10.5852 2.98799 9.92077 2.89647 8.84104C3.00982 10.1784 3.68899 11.3618 4.99676 12.4123Z" fill="#B691FF"/>
<path d="M10.192 4.75213C9.97195 5.4696 8.82203 6.28212 8.10456 6.06209C8.21775 5.36965 7.37376 4.67281 7.59379 3.95534C7.81382 3.23787 8.57381 2.83462 9.29128 3.05465C10.0087 3.27467 10.412 4.03466 10.192 4.75213Z" fill="#CCB2FF"/>
</svg>
