<svg width="16" height="34" viewBox="0 0 16 34" fill="none" xmlns="http://www.w3.org/2000/svg">
<path d="M9 1C9 0.447715 8.55228 -2.41411e-08 8 0C7.44772 2.41411e-08 7 0.447715 7 1L9 1ZM7.29289 33.7071C7.68342 34.0976 8.31658 34.0976 8.70711 33.7071L15.0711 27.3431C15.4616 26.9526 15.4616 26.3195 15.0711 25.9289C14.6805 25.5384 14.0474 25.5384 13.6569 25.9289L8 31.5858L2.34315 25.9289C1.95262 25.5384 1.31946 25.5384 0.928933 25.9289C0.538409 26.3195 0.538409 26.9526 0.928933 27.3431L7.29289 33.7071ZM7 3C7 3.55228 7.44772 4 8 4C8.55228 4 9 3.55228 9 3L7 3ZM9 7C9 6.44772 8.55228 6 8 6C7.44772 6 7 6.44772 7 7L9 7ZM7 11C7 11.5523 7.44772 12 8 12C8.55229 12 9 11.5523 9 11L7 11ZM9 15C9 14.4477 8.55229 14 8 14C7.44772 14 7 14.4477 7 15L9 15ZM7 19C7 19.5523 7.44772 20 8 20C8.55229 20 9 19.5523 9 19L7 19ZM9 23C9 22.4477 8.55229 22 8 22C7.44772 22 7 22.4477 7 23L9 23ZM7 27C7 27.5523 7.44772 28 8 28C8.55229 28 9 27.5523 9 27L7 27ZM9 31C9 30.4477 8.55229 30 8 30C7.44772 30 7 30.4477 7 31L9 31ZM7 1L7 3L9 3L9 1L7 1ZM7 7L7 11L9 11L9 7L7 7ZM7 15L7 19L9 19L9 15L7 15ZM7 23L7 27L9 27L9 23L7 23ZM7 31L7 33L9 33L9 31L7 31Z" fill="white"/>
</svg>
