<svg width="21" height="21" viewBox="0 0 21 21" fill="none" xmlns="http://www.w3.org/2000/svg">
<g clip-path="url(#clip0_368_3884)">
<path d="M18.9369 18.7444C19.0904 19.1252 19.0566 19.487 18.8356 19.8297C18.6154 20.1724 18.2943 20.3437 17.8722 20.3437L13.5848 20.3437C13.3162 20.3437 13.0764 20.2676 12.8654 20.1153C12.6544 19.963 12.5201 19.7535 12.4625 19.487L10.3907 11.2046L8.31892 19.487C8.26137 19.7535 8.12709 19.963 7.91607 20.1153C7.70505 20.2676 7.46526 20.3437 7.19669 20.3437L2.90921 20.3437C2.48718 20.3437 2.16567 20.1724 1.94468 19.8297C1.72445 19.487 1.69107 19.1252 1.84454 18.7444L9.32604 1.1515C9.53706 0.675501 9.89195 0.437502 10.3907 0.437502C10.8895 0.437502 11.2444 0.6755 11.4554 1.1515L18.9369 18.7444Z" fill="white"/>
</g>
<defs>
<clipPath id="clip0_368_3884">
<rect width="21" height="21" fill="white" transform="translate(0 21) rotate(-90)"/>
</clipPath>
</defs>
</svg>
