<svg width="16" height="16" viewBox="0 0 16 16" fill="none" xmlns="http://www.w3.org/2000/svg">
<g clip-path="url(#clip0_434_3349)">
<path d="M14.4787 15.7536L9.46733 10.7351C9.01989 11.0935 8.50533 11.3773 7.92365 11.5864C7.34197 11.7955 6.72301 11.9001 6.06676 11.9001C4.44105 11.9001 3.06531 11.3364 1.93955 10.209C0.813182 9.08105 0.25 7.70306 0.25 6.07504C0.25 4.44701 0.813182 3.06902 1.93955 1.94105C3.06531 0.813684 4.44105 0.25 6.06676 0.25C7.69247 0.25 9.06851 0.813684 10.1949 1.94105C11.3206 3.06902 11.8835 4.44701 11.8835 6.07504C11.8835 6.73222 11.7791 7.35206 11.5703 7.93457C11.3615 8.51707 11.0781 9.03236 10.7202 9.48044L15.7539 14.5213C15.918 14.6856 16 14.8873 16 15.1262C16 15.3652 15.9105 15.5743 15.7315 15.7536C15.5675 15.9179 15.3587 16 15.1051 16C14.8516 16 14.6428 15.9179 14.4787 15.7536ZM6.06676 10.1078C7.18537 10.1078 8.13633 9.71583 8.91966 8.93199C9.70239 8.14755 10.0937 7.19523 10.0937 6.07504C10.0937 4.95484 9.70239 4.00252 8.91966 3.21808C8.13633 2.43424 7.18537 2.04232 6.06676 2.04232C4.94815 2.04232 3.99719 2.43424 3.21386 3.21808C2.43114 4.00252 2.03977 4.95484 2.03977 6.07504C2.03977 7.19523 2.43114 8.14755 3.21386 8.93199C3.99719 9.71583 4.94815 10.1078 6.06676 10.1078Z" fill="#737980"/>
</g>
<defs>
<clipPath id="clip0_434_3349">
<rect width="16" height="16" fill="white"/>
</clipPath>
</defs>
</svg>
